# Placeholder heavy generated for Godot (Y-up)
mtllib placeholder_heavy.mtl
o heavy
v -0.040000 0.000000 0.000000
v -0.061436 0.680000 0.080000
v -0.061436 0.000000 0.080000
v -0.040000 0.680000 0.000000
v -0.120000 0.680000 0.138564
v -0.120000 0.000000 0.138564
v -0.200000 0.680000 0.160000
v -0.200000 0.000000 0.160000
v -0.280000 0.680000 0.138564
v -0.280000 0.000000 0.138564
v -0.338564 0.680000 0.080000
v -0.338564 0.000000 0.080000
v -0.360000 0.680000 0.000000
v -0.360000 0.000000 0.000000
v -0.338564 0.680000 -0.080000
v -0.338564 0.000000 -0.080000
v -0.280000 0.680000 -0.138564
v -0.280000 0.000000 -0.138564
v -0.200000 0.680000 -0.160000
v -0.200000 0.000000 -0.160000
v -0.120000 0.680000 -0.138564
v -0.120000 0.000000 -0.138564
v -0.061436 0.680000 -0.080000
v -0.061436 0.000000 -0.080000
v -0.200000 0.680000 0.000000
v -0.200000 0.000000 0.000000
v 0.360000 0.000000 0.000000
v 0.338564 0.680000 0.080000
v 0.338564 0.000000 0.080000
v 0.360000 0.680000 0.000000
v 0.280000 0.680000 0.138564
v 0.280000 0.000000 0.138564
v 0.200000 0.680000 0.160000
v 0.200000 0.000000 0.160000
v 0.120000 0.680000 0.138564
v 0.120000 0.000000 0.138564
v 0.061436 0.680000 0.080000
v 0.061436 0.000000 0.080000
v 0.040000 0.680000 0.000000
v 0.040000 0.000000 0.000000
v 0.061436 0.680000 -0.080000
v 0.061436 0.000000 -0.080000
v 0.120000 0.680000 -0.138564
v 0.120000 0.000000 -0.138564
v 0.200000 0.680000 -0.160000
v 0.200000 0.000000 -0.160000
v 0.280000 0.680000 -0.138564
v 0.280000 0.000000 -0.138564
v 0.338564 0.680000 -0.080000
v 0.338564 0.000000 -0.080000
v 0.200000 0.680000 0.000000
v 0.200000 0.000000 0.000000
v -0.400000 0.620000 -0.220000
v 0.400000 0.620000 0.220000
v -0.400000 0.620000 0.220000
v 0.400000 0.620000 -0.220000
v -0.400000 1.260000 -0.220000
v 0.400000 1.260000 0.220000
v 0.400000 1.260000 -0.220000
v -0.400000 1.260000 0.220000
v 0.100000 1.260000 0.000000
v 0.080902 1.400000 0.058779
v 0.080902 1.260000 0.058779
v 0.100000 1.400000 0.000000
v 0.030902 1.400000 0.095106
v 0.030902 1.260000 0.095106
v -0.030902 1.400000 0.095106
v -0.030902 1.260000 0.095106
v -0.080902 1.400000 0.058779
v -0.080902 1.260000 0.058779
v -0.100000 1.400000 0.000000
v -0.100000 1.260000 0.000000
v -0.080902 1.400000 -0.058779
v -0.080902 1.260000 -0.058779
v -0.030902 1.400000 -0.095106
v -0.030902 1.260000 -0.095106
v 0.030902 1.400000 -0.095106
v 0.030902 1.260000 -0.095106
v 0.080902 1.400000 -0.058779
v 0.080902 1.260000 -0.058779
v 0.000000 1.400000 0.000000
v 0.000000 1.260000 0.000000
v 0.000000 1.720000 0.000000
v 0.049536 1.707821 0.035990
v 0.061229 1.707821 0.000000
v 0.018921 1.707821 0.058233
v -0.018921 1.707821 0.058233
v -0.049536 1.707821 0.035990
v -0.061229 1.707821 0.000000
v -0.049536 1.707821 -0.035990
v -0.018921 1.707821 -0.058233
v 0.018921 1.707821 -0.058233
v 0.049536 1.707821 -0.035990
v 0.091530 1.673137 0.066500
v 0.113137 1.673137 0.000000
v 0.034961 1.673137 0.107600
v -0.034961 1.673137 0.107600
v -0.091530 1.673137 0.066500
v -0.113137 1.673137 0.000000
v -0.091530 1.673137 -0.066500
v -0.034961 1.673137 -0.107600
v 0.034961 1.673137 -0.107600
v 0.091530 1.673137 -0.066500
v 0.119589 1.621229 0.086887
v 0.147821 1.621229 0.000000
v 0.045679 1.621229 0.140586
v -0.045679 1.621229 0.140586
v -0.119589 1.621229 0.086887
v -0.147821 1.621229 0.000000
v -0.119589 1.621229 -0.086887
v -0.045679 1.621229 -0.140586
v 0.045679 1.621229 -0.140586
v 0.119589 1.621229 -0.086887
v 0.129443 1.560000 0.094046
v 0.160000 1.560000 0.000000
v 0.049443 1.560000 0.152169
v -0.049443 1.560000 0.152169
v -0.129443 1.560000 0.094046
v -0.160000 1.560000 0.000000
v -0.129443 1.560000 -0.094046
v -0.049443 1.560000 -0.152169
v 0.049443 1.560000 -0.152169
v 0.129443 1.560000 -0.094046
v 0.119589 1.498771 0.086887
v 0.147821 1.498771 0.000000
v 0.045679 1.498771 0.140586
v -0.045679 1.498771 0.140586
v -0.119589 1.498771 0.086887
v -0.147821 1.498771 0.000000
v -0.119589 1.498771 -0.086887
v -0.045679 1.498771 -0.140586
v 0.045679 1.498771 -0.140586
v 0.119589 1.498771 -0.086887
v 0.091530 1.446863 0.066500
v 0.113137 1.446863 0.000000
v 0.034961 1.446863 0.107600
v -0.034961 1.446863 0.107600
v -0.091530 1.446863 0.066500
v -0.113137 1.446863 0.000000
v -0.091530 1.446863 -0.066500
v -0.034961 1.446863 -0.107600
v 0.034961 1.446863 -0.107600
v 0.091530 1.446863 -0.066500
v 0.049536 1.412179 0.035990
v 0.061229 1.412179 0.000000
v 0.018921 1.412179 0.058233
v -0.018921 1.412179 0.058233
v -0.049536 1.412179 0.035990
v -0.061229 1.412179 0.000000
v -0.049536 1.412179 -0.035990
v -0.018921 1.412179 -0.058233
v 0.018921 1.412179 -0.058233
v 0.049536 1.412179 -0.035990
v -0.400000 0.660000 0.000000
v -0.417417 1.280000 0.065000
v -0.417417 0.660000 0.065000
v -0.400000 1.280000 0.000000
v -0.465000 1.280000 0.112583
v -0.465000 0.660000 0.112583
v -0.530000 1.280000 0.130000
v -0.530000 0.660000 0.130000
v -0.595000 1.280000 0.112583
v -0.595000 0.660000 0.112583
v -0.642583 1.280000 0.065000
v -0.642583 0.660000 0.065000
v -0.660000 1.280000 0.000000
v -0.660000 0.660000 0.000000
v -0.642583 1.280000 -0.065000
v -0.642583 0.660000 -0.065000
v -0.595000 1.280000 -0.112583
v -0.595000 0.660000 -0.112583
v -0.530000 1.280000 -0.130000
v -0.530000 0.660000 -0.130000
v -0.465000 1.280000 -0.112583
v -0.465000 0.660000 -0.112583
v -0.417417 1.280000 -0.065000
v -0.417417 0.660000 -0.065000
v -0.530000 1.280000 0.000000
v -0.530000 0.660000 0.000000
v 0.660000 0.660000 0.000000
v 0.642583 1.280000 0.065000
v 0.642583 0.660000 0.065000
v 0.660000 1.280000 0.000000
v 0.595000 1.280000 0.112583
v 0.595000 0.660000 0.112583
v 0.530000 1.280000 0.130000
v 0.530000 0.660000 0.130000
v 0.465000 1.280000 0.112583
v 0.465000 0.660000 0.112583
v 0.417417 1.280000 0.065000
v 0.417417 0.660000 0.065000
v 0.400000 1.280000 0.000000
v 0.400000 0.660000 0.000000
v 0.417417 1.280000 -0.065000
v 0.417417 0.660000 -0.065000
v 0.465000 1.280000 -0.112583
v 0.465000 0.660000 -0.112583
v 0.530000 1.280000 -0.130000
v 0.530000 0.660000 -0.130000
v 0.595000 1.280000 -0.112583
v 0.595000 0.660000 -0.112583
v 0.642583 1.280000 -0.065000
v 0.642583 0.660000 -0.065000
v 0.530000 1.280000 0.000000
v 0.530000 0.660000 0.000000
v -0.185000 1.530000 0.000000
v -0.240000 1.790000 0.000000
v -0.201109 1.530000 0.038891
v -0.240000 1.530000 0.055000
v -0.278891 1.530000 0.038891
v -0.295000 1.530000 0.000000
v -0.278891 1.530000 -0.038891
v -0.240000 1.530000 -0.055000
v -0.201109 1.530000 -0.038891
v -0.240000 1.530000 0.000000
v 0.295000 1.530000 0.000000
v 0.240000 1.790000 0.000000
v 0.278891 1.530000 0.038891
v 0.240000 1.530000 0.055000
v 0.201109 1.530000 0.038891
v 0.185000 1.530000 0.000000
v 0.201109 1.530000 -0.038891
v 0.240000 1.530000 -0.055000
v 0.278891 1.530000 -0.038891
v 0.240000 1.530000 0.000000
vn 0.965926 0.000000 0.258819
vn 0.965926 -0.000000 0.258819
vn 0.707107 0.000000 0.707107
vn 0.707107 -0.000000 0.707107
vn 0.258819 0.000000 0.965926
vn 0.258819 -0.000000 0.965926
vn -0.258819 0.000000 0.965926
vn -0.258819 0.000000 0.965926
vn -0.707107 0.000000 0.707107
vn -0.707107 0.000000 0.707107
vn -0.965926 0.000000 0.258819
vn -0.965926 0.000000 0.258819
vn -0.965926 0.000000 -0.258819
vn -0.965926 0.000000 -0.258819
vn -0.707107 0.000000 -0.707107
vn -0.707107 0.000000 -0.707107
vn -0.258819 0.000000 -0.965926
vn -0.258819 0.000000 -0.965926
vn 0.258819 0.000000 -0.965926
vn 0.258819 0.000000 -0.965926
vn 0.707107 0.000000 -0.707107
vn 0.707107 0.000000 -0.707107
vn 0.965926 0.000000 -0.258819
vn 0.965926 0.000000 -0.258819
vn 0.000000 1.000000 0.000000
vn 0.000000 1.000000 0.000000
vn 0.000000 1.000000 0.000000
vn 0.000000 1.000000 -0.000000
vn 0.000000 1.000000 0.000000
vn 0.000000 1.000000 0.000000
vn 0.000000 1.000000 0.000000
vn 0.000000 1.000000 0.000000
vn 0.000000 1.000000 0.000000
vn 0.000000 1.000000 0.000000
vn 0.000000 1.000000 0.000000
vn -0.000000 1.000000 0.000000
vn 0.000000 -1.000000 0.000000
vn 0.000000 -1.000000 0.000000
vn 0.000000 -1.000000 0.000000
vn 0.000000 -1.000000 0.000000
vn 0.000000 -1.000000 0.000000
vn 0.000000 -1.000000 0.000000
vn -0.000000 -1.000000 0.000000
vn 0.000000 -1.000000 0.000000
vn 0.000000 -1.000000 0.000000
vn 0.000000 -1.000000 -0.000000
vn 0.000000 -1.000000 0.000000
vn 0.000000 -1.000000 0.000000
vn 0.965926 0.000000 0.258819
vn 0.965926 -0.000000 0.258819
vn 0.707107 0.000000 0.707107
vn 0.707107 -0.000000 0.707107
vn 0.258819 0.000000 0.965926
vn 0.258819 -0.000000 0.965926
vn -0.258819 0.000000 0.965926
vn -0.258819 0.000000 0.965926
vn -0.707107 0.000000 0.707107
vn -0.707107 0.000000 0.707107
vn -0.965926 0.000000 0.258819
vn -0.965926 0.000000 0.258819
vn -0.965926 0.000000 -0.258819
vn -0.965926 0.000000 -0.258819
vn -0.707107 0.000000 -0.707107
vn -0.707107 0.000000 -0.707107
vn -0.258819 0.000000 -0.965926
vn -0.258819 0.000000 -0.965926
vn 0.258819 0.000000 -0.965926
vn 0.258819 0.000000 -0.965926
vn 0.707107 0.000000 -0.707107
vn 0.707107 0.000000 -0.707107
vn 0.965926 0.000000 -0.258819
vn 0.965926 0.000000 -0.258819
vn 0.000000 1.000000 0.000000
vn 0.000000 1.000000 0.000000
vn 0.000000 1.000000 0.000000
vn 0.000000 1.000000 -0.000000
vn 0.000000 1.000000 0.000000
vn 0.000000 1.000000 0.000000
vn 0.000000 1.000000 0.000000
vn 0.000000 1.000000 0.000000
vn 0.000000 1.000000 0.000000
vn 0.000000 1.000000 0.000000
vn 0.000000 1.000000 0.000000
vn -0.000000 1.000000 0.000000
vn 0.000000 -1.000000 0.000000
vn 0.000000 -1.000000 0.000000
vn 0.000000 -1.000000 0.000000
vn 0.000000 -1.000000 0.000000
vn 0.000000 -1.000000 0.000000
vn 0.000000 -1.000000 0.000000
vn -0.000000 -1.000000 0.000000
vn 0.000000 -1.000000 0.000000
vn 0.000000 -1.000000 0.000000
vn 0.000000 -1.000000 -0.000000
vn 0.000000 -1.000000 0.000000
vn 0.000000 -1.000000 0.000000
vn 0.000000 -1.000000 0.000000
vn 0.000000 -1.000000 0.000000
vn 0.000000 1.000000 0.000000
vn 0.000000 1.000000 0.000000
vn 0.000000 0.000000 -1.000000
vn 0.000000 0.000000 -1.000000
vn 0.000000 0.000000 1.000000
vn 0.000000 0.000000 1.000000
vn -1.000000 0.000000 0.000000
vn -1.000000 0.000000 0.000000
vn 1.000000 0.000000 0.000000
vn 1.000000 0.000000 0.000000
vn 0.951057 0.000000 0.309017
vn 0.951057 -0.000000 0.309017
vn 0.587785 0.000000 0.809017
vn 0.587785 -0.000000 0.809017
vn 0.000000 0.000000 1.000000
vn 0.000000 -0.000000 1.000000
vn -0.587785 0.000000 0.809017
vn -0.587785 0.000000 0.809017
vn -0.951057 0.000000 0.309017
vn -0.951057 0.000000 0.309017
vn -0.951057 0.000000 -0.309017
vn -0.951057 0.000000 -0.309017
vn -0.587785 0.000000 -0.809017
vn -0.587785 0.000000 -0.809017
vn -0.000000 0.000000 -1.000000
vn -0.000000 0.000000 -1.000000
vn 0.587785 0.000000 -0.809017
vn 0.587785 0.000000 -0.809017
vn 0.951057 0.000000 -0.309017
vn 0.951057 0.000000 -0.309017
vn 0.000000 1.000000 0.000000
vn 0.000000 1.000000 0.000000
vn 0.000000 1.000000 -0.000000
vn 0.000000 1.000000 0.000000
vn 0.000000 1.000000 0.000000
vn 0.000000 1.000000 0.000000
vn 0.000000 1.000000 0.000000
vn 0.000000 1.000000 0.000000
vn 0.000000 1.000000 0.000000
vn -0.000000 1.000000 0.000000
vn 0.000000 -1.000000 0.000000
vn 0.000000 -1.000000 0.000000
vn 0.000000 -1.000000 0.000000
vn 0.000000 -1.000000 0.000000
vn 0.000000 -1.000000 0.000000
vn -0.000000 -1.000000 0.000000
vn 0.000000 -1.000000 0.000000
vn 0.000000 -1.000000 -0.000000
vn 0.000000 -1.000000 0.000000
vn 0.000000 -1.000000 0.000000
vn 0.194700 0.978821 0.063262
vn 0.120331 0.978821 0.165621
vn 0.000000 0.978821 0.204719
vn -0.120331 0.978821 0.165621
vn -0.194700 0.978821 0.063262
vn -0.194700 0.978821 -0.063262
vn -0.120331 0.978821 -0.165621
vn -0.000000 0.978821 -0.204719
vn 0.120331 0.978821 -0.165621
vn 0.194700 0.978821 -0.063262
vn 0.546734 0.818245 0.177645
vn 0.546734 0.818245 0.177645
vn 0.337900 0.818245 0.465079
vn 0.337900 0.818245 0.465079
vn 0.000000 0.818245 0.574870
vn 0.000000 0.818245 0.574870
vn -0.337900 0.818245 0.465079
vn -0.337900 0.818245 0.465079
vn -0.546734 0.818245 0.177645
vn -0.546734 0.818245 0.177645
vn -0.546734 0.818245 -0.177645
vn -0.546734 0.818245 -0.177645
vn -0.337900 0.818245 -0.465079
vn -0.337900 0.818245 -0.465079
vn -0.000000 0.818245 -0.574870
vn -0.000000 0.818245 -0.574870
vn 0.337900 0.818245 -0.465079
vn 0.337900 0.818245 -0.465079
vn 0.546734 0.818245 -0.177645
vn 0.546734 0.818245 -0.177645
vn 0.802692 0.536342 0.260811
vn 0.802692 0.536342 0.260811
vn 0.496091 0.536342 0.682811
vn 0.496091 0.536342 0.682811
vn 0.000000 0.536342 0.844001
vn 0.000000 0.536342 0.844001
vn -0.496091 0.536342 0.682811
vn -0.496091 0.536342 0.682811
vn -0.802692 0.536342 0.260811
vn -0.802692 0.536342 0.260811
vn -0.802692 0.536342 -0.260811
vn -0.802692 0.536342 -0.260811
vn -0.496091 0.536342 -0.682811
vn -0.496091 0.536342 -0.682811
vn -0.000000 0.536342 -0.844001
vn -0.000000 0.536342 -0.844001
vn 0.496091 0.536342 -0.682811
vn 0.496091 0.536342 -0.682811
vn 0.802692 0.536342 -0.260811
vn 0.802692 0.536342 -0.260811
vn 0.934482 0.185880 0.303632
vn 0.934482 0.185880 0.303632
vn 0.577542 0.185880 0.794918
vn 0.577542 0.185880 0.794918
vn 0.000000 0.185880 0.982572
vn 0.000000 0.185880 0.982572
vn -0.577542 0.185880 0.794918
vn -0.577542 0.185880 0.794918
vn -0.934482 0.185880 0.303632
vn -0.934482 0.185880 0.303632
vn -0.934482 0.185880 -0.303632
vn -0.934482 0.185880 -0.303632
vn -0.577542 0.185880 -0.794918
vn -0.577542 0.185880 -0.794918
vn 0.000000 0.185880 -0.982572
vn -0.000000 0.185880 -0.982572
vn 0.577542 0.185880 -0.794918
vn 0.577542 0.185880 -0.794918
vn 0.934482 0.185880 -0.303632
vn 0.934482 0.185880 -0.303632
vn 0.934482 -0.185880 0.303632
vn 0.934482 -0.185880 0.303632
vn 0.577542 -0.185880 0.794918
vn 0.577542 -0.185880 0.794918
vn 0.000000 -0.185880 0.982572
vn 0.000000 -0.185880 0.982572
vn -0.577542 -0.185880 0.794918
vn -0.577542 -0.185880 0.794918
vn -0.934482 -0.185880 0.303632
vn -0.934482 -0.185880 0.303632
vn -0.934482 -0.185880 -0.303632
vn -0.934482 -0.185880 -0.303632
vn -0.577542 -0.185880 -0.794918
vn -0.577542 -0.185880 -0.794918
vn -0.000000 -0.185880 -0.982572
vn 0.000000 -0.185880 -0.982572
vn 0.577542 -0.185880 -0.794918
vn 0.577542 -0.185880 -0.794918
vn 0.934482 -0.185880 -0.303632
vn 0.934482 -0.185880 -0.303632
vn 0.802692 -0.536342 0.260811
vn 0.802692 -0.536342 0.260811
vn 0.496091 -0.536342 0.682811
vn 0.496091 -0.536342 0.682811
vn 0.000000 -0.536342 0.844001
vn 0.000000 -0.536342 0.844001
vn -0.496091 -0.536342 0.682811
vn -0.496091 -0.536342 0.682811
vn -0.802692 -0.536342 0.260811
vn -0.802692 -0.536342 0.260811
vn -0.802692 -0.536342 -0.260811
vn -0.802692 -0.536342 -0.260811
vn -0.496091 -0.536342 -0.682811
vn -0.496091 -0.536342 -0.682811
vn -0.000000 -0.536342 -0.844001
vn -0.000000 -0.536342 -0.844001
vn 0.496091 -0.536342 -0.682811
vn 0.496091 -0.536342 -0.682811
vn 0.802692 -0.536342 -0.260811
vn 0.802692 -0.536342 -0.260811
vn 0.546734 -0.818245 0.177645
vn 0.546734 -0.818245 0.177645
vn 0.337900 -0.818245 0.465079
vn 0.337900 -0.818245 0.465079
vn 0.000000 -0.818245 0.574870
vn 0.000000 -0.818245 0.574870
vn -0.337900 -0.818245 0.465079
vn -0.337900 -0.818245 0.465079
vn -0.546734 -0.818245 0.177645
vn -0.546734 -0.818245 0.177645
vn -0.546734 -0.818245 -0.177645
vn -0.546734 -0.818245 -0.177645
vn -0.337900 -0.818245 -0.465079
vn -0.337900 -0.818245 -0.465079
vn -0.000000 -0.818245 -0.574870
vn -0.000000 -0.818245 -0.574870
vn 0.337900 -0.818245 -0.465079
vn 0.337900 -0.818245 -0.465079
vn 0.546734 -0.818245 -0.177645
vn 0.546734 -0.818245 -0.177645
vn 0.194700 -0.978821 0.063262
vn 0.120331 -0.978821 0.165621
vn 0.000000 -0.978821 0.204719
vn -0.120331 -0.978821 0.165621
vn -0.194700 -0.978821 0.063262
vn -0.194700 -0.978821 -0.063262
vn -0.120331 -0.978821 -0.165621
vn -0.000000 -0.978821 -0.204719
vn 0.120331 -0.978821 -0.165621
vn 0.194700 -0.978821 -0.063262
vn 0.965926 0.000000 0.258819
vn 0.965926 -0.000000 0.258819
vn 0.707107 0.000000 0.707107
vn 0.707107 -0.000000 0.707107
vn 0.258819 0.000000 0.965926
vn 0.258819 -0.000000 0.965926
vn -0.258819 0.000000 0.965926
vn -0.258819 0.000000 0.965926
vn -0.707107 0.000000 0.707107
vn -0.707107 0.000000 0.707107
vn -0.965926 0.000000 0.258819
vn -0.965926 0.000000 0.258819
vn -0.965926 0.000000 -0.258819
vn -0.965926 0.000000 -0.258819
vn -0.707107 0.000000 -0.707107
vn -0.707107 0.000000 -0.707107
vn -0.258819 0.000000 -0.965926
vn -0.258819 0.000000 -0.965926
vn 0.258819 0.000000 -0.965926
vn 0.258819 0.000000 -0.965926
vn 0.707107 0.000000 -0.707107
vn 0.707107 0.000000 -0.707107
vn 0.965926 0.000000 -0.258819
vn 0.965926 0.000000 -0.258819
vn 0.000000 1.000000 0.000000
vn 0.000000 1.000000 0.000000
vn 0.000000 1.000000 0.000000
vn 0.000000 1.000000 -0.000000
vn 0.000000 1.000000 0.000000
vn 0.000000 1.000000 0.000000
vn 0.000000 1.000000 0.000000
vn 0.000000 1.000000 0.000000
vn 0.000000 1.000000 0.000000
vn 0.000000 1.000000 0.000000
vn 0.000000 1.000000 0.000000
vn -0.000000 1.000000 0.000000
vn 0.000000 -1.000000 0.000000
vn 0.000000 -1.000000 0.000000
vn 0.000000 -1.000000 0.000000
vn 0.000000 -1.000000 0.000000
vn 0.000000 -1.000000 0.000000
vn 0.000000 -1.000000 0.000000
vn -0.000000 -1.000000 0.000000
vn 0.000000 -1.000000 0.000000
vn 0.000000 -1.000000 -0.000000
vn 0.000000 -1.000000 0.000000
vn 0.000000 -1.000000 0.000000
vn 0.000000 -1.000000 0.000000
vn 0.965926 0.000000 0.258819
vn 0.965926 -0.000000 0.258819
vn 0.707107 0.000000 0.707107
vn 0.707107 -0.000000 0.707107
vn 0.258819 0.000000 0.965926
vn 0.258819 -0.000000 0.965926
vn -0.258819 0.000000 0.965926
vn -0.258819 0.000000 0.965926
vn -0.707107 0.000000 0.707107
vn -0.707107 0.000000 0.707107
vn -0.965926 0.000000 0.258819
vn -0.965926 0.000000 0.258819
vn -0.965926 0.000000 -0.258819
vn -0.965926 0.000000 -0.258819
vn -0.707107 0.000000 -0.707107
vn -0.707107 0.000000 -0.707107
vn -0.258819 0.000000 -0.965926
vn -0.258819 0.000000 -0.965926
vn 0.258819 0.000000 -0.965926
vn 0.258819 0.000000 -0.965926
vn 0.707107 0.000000 -0.707107
vn 0.707107 0.000000 -0.707107
vn 0.965926 0.000000 -0.258819
vn 0.965926 0.000000 -0.258819
vn 0.000000 1.000000 0.000000
vn 0.000000 1.000000 0.000000
vn 0.000000 1.000000 0.000000
vn 0.000000 1.000000 -0.000000
vn 0.000000 1.000000 0.000000
vn 0.000000 1.000000 0.000000
vn 0.000000 1.000000 0.000000
vn 0.000000 1.000000 0.000000
vn 0.000000 1.000000 0.000000
vn 0.000000 1.000000 0.000000
vn 0.000000 1.000000 0.000000
vn -0.000000 1.000000 0.000000
vn 0.000000 -1.000000 0.000000
vn 0.000000 -1.000000 0.000000
vn 0.000000 -1.000000 0.000000
vn 0.000000 -1.000000 0.000000
vn 0.000000 -1.000000 0.000000
vn 0.000000 -1.000000 0.000000
vn -0.000000 -1.000000 0.000000
vn 0.000000 -1.000000 0.000000
vn 0.000000 -1.000000 -0.000000
vn 0.000000 -1.000000 0.000000
vn 0.000000 -1.000000 0.000000
vn 0.000000 -1.000000 0.000000
vn 0.906725 0.191807 0.375578
vn 0.375578 0.191807 0.906725
vn -0.375578 0.191807 0.906725
vn -0.906725 0.191807 0.375578
vn -0.906725 0.191807 -0.375578
vn -0.375578 0.191807 -0.906725
vn 0.375578 0.191807 -0.906725
vn 0.906725 0.191807 -0.375578
vn 0.000000 -1.000000 0.000000
vn 0.000000 -1.000000 0.000000
vn 0.000000 -1.000000 0.000000
vn 0.000000 -1.000000 0.000000
vn -0.000000 -1.000000 0.000000
vn 0.000000 -1.000000 -0.000000
vn 0.000000 -1.000000 0.000000
vn 0.000000 -1.000000 0.000000
vn 0.906725 0.191807 0.375578
vn 0.375578 0.191807 0.906725
vn -0.375578 0.191807 0.906725
vn -0.906725 0.191807 0.375578
vn -0.906725 0.191807 -0.375578
vn -0.375578 0.191807 -0.906725
vn 0.375578 0.191807 -0.906725
vn 0.906725 0.191807 -0.375578
vn 0.000000 -1.000000 0.000000
vn 0.000000 -1.000000 0.000000
vn 0.000000 -1.000000 0.000000
vn 0.000000 -1.000000 0.000000
vn -0.000000 -1.000000 0.000000
vn 0.000000 -1.000000 -0.000000
vn 0.000000 -1.000000 0.000000
vn 0.000000 -1.000000 0.000000
usemtl placeholder
f 1//1 2//1 3//1
f 1//2 4//2 2//2
f 3//3 5//3 6//3
f 3//4 2//4 5//4
f 6//5 7//5 8//5
f 6//6 5//6 7//6
f 8//7 9//7 10//7
f 8//8 7//8 9//8
f 10//9 11//9 12//9
f 10//10 9//10 11//10
f 12//11 13//11 14//11
f 12//12 11//12 13//12
f 14//13 15//13 16//13
f 14//14 13//14 15//14
f 16//15 17//15 18//15
f 16//16 15//16 17//16
f 18//17 19//17 20//17
f 18//18 17//18 19//18
f 20//19 21//19 22//19
f 20//20 19//20 21//20
f 22//21 23//21 24//21
f 22//22 21//22 23//22
f 24//23 4//23 1//23
f 24//24 23//24 4//24
f 25//25 2//25 4//25
f 25//26 5//26 2//26
f 25//27 7//27 5//27
f 25//28 9//28 7//28
f 25//29 11//29 9//29
f 25//30 13//30 11//30
f 25//31 15//31 13//31
f 25//32 17//32 15//32
f 25//33 19//33 17//33
f 25//34 21//34 19//34
f 25//35 23//35 21//35
f 25//36 4//36 23//36
f 26//37 1//37 3//37
f 26//38 3//38 6//38
f 26//39 6//39 8//39
f 26//40 8//40 10//40
f 26//41 10//41 12//41
f 26//42 12//42 14//42
f 26//43 14//43 16//43
f 26//44 16//44 18//44
f 26//45 18//45 20//45
f 26//46 20//46 22//46
f 26//47 22//47 24//47
f 26//48 24//48 1//48
f 27//49 28//49 29//49
f 27//50 30//50 28//50
f 29//51 31//51 32//51
f 29//52 28//52 31//52
f 32//53 33//53 34//53
f 32//54 31//54 33//54
f 34//55 35//55 36//55
f 34//56 33//56 35//56
f 36//57 37//57 38//57
f 36//58 35//58 37//58
f 38//59 39//59 40//59
f 38//60 37//60 39//60
f 40//61 41//61 42//61
f 40//62 39//62 41//62
f 42//63 43//63 44//63
f 42//64 41//64 43//64
f 44//65 45//65 46//65
f 44//66 43//66 45//66
f 46//67 47//67 48//67
f 46//68 45//68 47//68
f 48//69 49//69 50//69
f 48//70 47//70 49//70
f 50//71 30//71 27//71
f 50//72 49//72 30//72
f 51//73 28//73 30//73
f 51//74 31//74 28//74
f 51//75 33//75 31//75
f 51//76 35//76 33//76
f 51//77 37//77 35//77
f 51//78 39//78 37//78
f 51//79 41//79 39//79
f 51//80 43//80 41//80
f 51//81 45//81 43//81
f 51//82 47//82 45//82
f 51//83 49//83 47//83
f 51//84 30//84 49//84
f 52//85 27//85 29//85
f 52//86 29//86 32//86
f 52//87 32//87 34//87
f 52//88 34//88 36//88
f 52//89 36//89 38//89
f 52//90 38//90 40//90
f 52//91 40//91 42//91
f 52//92 42//92 44//92
f 52//93 44//93 46//93
f 52//94 46//94 48//94
f 52//95 48//95 50//95
f 52//96 50//96 27//96
f 53//97 54//97 55//97
f 53//98 56//98 54//98
f 57//99 58//99 59//99
f 57//100 60//100 58//100
f 53//101 59//101 56//101
f 53//102 57//102 59//102
f 55//103 58//103 60//103
f 55//104 54//104 58//104
f 53//105 60//105 57//105
f 53//106 55//106 60//106
f 56//107 58//107 54//107
f 56//108 59//108 58//108
f 61//109 62//109 63//109
f 61//110 64//110 62//110
f 63//111 65//111 66//111
f 63//112 62//112 65//112
f 66//113 67//113 68//113
f 66//114 65//114 67//114
f 68//115 69//115 70//115
f 68//116 67//116 69//116
f 70//117 71//117 72//117
f 70//118 69//118 71//118
f 72//119 73//119 74//119
f 72//120 71//120 73//120
f 74//121 75//121 76//121
f 74//122 73//122 75//122
f 76//123 77//123 78//123
f 76//124 75//124 77//124
f 78//125 79//125 80//125
f 78//126 77//126 79//126
f 80//127 64//127 61//127
f 80//128 79//128 64//128
f 81//129 62//129 64//129
f 81//130 65//130 62//130
f 81//131 67//131 65//131
f 81//132 69//132 67//132
f 81//133 71//133 69//133
f 81//134 73//134 71//134
f 81//135 75//135 73//135
f 81//136 77//136 75//136
f 81//137 79//137 77//137
f 81//138 64//138 79//138
f 82//139 61//139 63//139
f 82//140 63//140 66//140
f 82//141 66//141 68//141
f 82//142 68//142 70//142
f 82//143 70//143 72//143
f 82//144 72//144 74//144
f 82//145 74//145 76//145
f 82//146 76//146 78//146
f 82//147 78//147 80//147
f 82//148 80//148 61//148
f 83//149 84//149 85//149
f 83//150 86//150 84//150
f 83//151 87//151 86//151
f 83//152 88//152 87//152
f 83//153 89//153 88//153
f 83//154 90//154 89//154
f 83//155 91//155 90//155
f 83//156 92//156 91//156
f 83//157 93//157 92//157
f 83//158 85//158 93//158
f 85//159 94//159 95//159
f 85//160 84//160 94//160
f 84//161 96//161 94//161
f 84//162 86//162 96//162
f 86//163 97//163 96//163
f 86//164 87//164 97//164
f 87//165 98//165 97//165
f 87//166 88//166 98//166
f 88//167 99//167 98//167
f 88//168 89//168 99//168
f 89//169 100//169 99//169
f 89//170 90//170 100//170
f 90//171 101//171 100//171
f 90//172 91//172 101//172
f 91//173 102//173 101//173
f 91//174 92//174 102//174
f 92//175 103//175 102//175
f 92//176 93//176 103//176
f 93//177 95//177 103//177
f 93//178 85//178 95//178
f 95//179 104//179 105//179
f 95//180 94//180 104//180
f 94//181 106//181 104//181
f 94//182 96//182 106//182
f 96//183 107//183 106//183
f 96//184 97//184 107//184
f 97//185 108//185 107//185
f 97//186 98//186 108//186
f 98//187 109//187 108//187
f 98//188 99//188 109//188
f 99//189 110//189 109//189
f 99//190 100//190 110//190
f 100//191 111//191 110//191
f 100//192 101//192 111//192
f 101//193 112//193 111//193
f 101//194 102//194 112//194
f 102//195 113//195 112//195
f 102//196 103//196 113//196
f 103//197 105//197 113//197
f 103//198 95//198 105//198
f 105//199 114//199 115//199
f 105//200 104//200 114//200
f 104//201 116//201 114//201
f 104//202 106//202 116//202
f 106//203 117//203 116//203
f 106//204 107//204 117//204
f 107//205 118//205 117//205
f 107//206 108//206 118//206
f 108//207 119//207 118//207
f 108//208 109//208 119//208
f 109//209 120//209 119//209
f 109//210 110//210 120//210
f 110//211 121//211 120//211
f 110//212 111//212 121//212
f 111//213 122//213 121//213
f 111//214 112//214 122//214
f 112//215 123//215 122//215
f 112//216 113//216 123//216
f 113//217 115//217 123//217
f 113//218 105//218 115//218
f 115//219 124//219 125//219
f 115//220 114//220 124//220
f 114//221 126//221 124//221
f 114//222 116//222 126//222
f 116//223 127//223 126//223
f 116//224 117//224 127//224
f 117//225 128//225 127//225
f 117//226 118//226 128//226
f 118//227 129//227 128//227
f 118//228 119//228 129//228
f 119//229 130//229 129//229
f 119//230 120//230 130//230
f 120//231 131//231 130//231
f 120//232 121//232 131//232
f 121//233 132//233 131//233
f 121//234 122//234 132//234
f 122//235 133//235 132//235
f 122//236 123//236 133//236
f 123//237 125//237 133//237
f 123//238 115//238 125//238
f 125//239 134//239 135//239
f 125//240 124//240 134//240
f 124//241 136//241 134//241
f 124//242 126//242 136//242
f 126//243 137//243 136//243
f 126//244 127//244 137//244
f 127//245 138//245 137//245
f 127//246 128//246 138//246
f 128//247 139//247 138//247
f 128//248 129//248 139//248
f 129//249 140//249 139//249
f 129//250 130//250 140//250
f 130//251 141//251 140//251
f 130//252 131//252 141//252
f 131//253 142//253 141//253
f 131//254 132//254 142//254
f 132//255 143//255 142//255
f 132//256 133//256 143//256
f 133//257 135//257 143//257
f 133//258 125//258 135//258
f 135//259 144//259 145//259
f 135//260 134//260 144//260
f 134//261 146//261 144//261
f 134//262 136//262 146//262
f 136//263 147//263 146//263
f 136//264 137//264 147//264
f 137//265 148//265 147//265
f 137//266 138//266 148//266
f 138//267 149//267 148//267
f 138//268 139//268 149//268
f 139//269 150//269 149//269
f 139//270 140//270 150//270
f 140//271 151//271 150//271
f 140//272 141//272 151//272
f 141//273 152//273 151//273
f 141//274 142//274 152//274
f 142//275 153//275 152//275
f 142//276 143//276 153//276
f 143//277 145//277 153//277
f 143//278 135//278 145//278
f 145//279 144//279 81//279
f 144//280 146//280 81//280
f 146//281 147//281 81//281
f 147//282 148//282 81//282
f 148//283 149//283 81//283
f 149//284 150//284 81//284
f 150//285 151//285 81//285
f 151//286 152//286 81//286
f 152//287 153//287 81//287
f 153//288 145//288 81//288
f 154//289 155//289 156//289
f 154//290 157//290 155//290
f 156//291 158//291 159//291
f 156//292 155//292 158//292
f 159//293 160//293 161//293
f 159//294 158//294 160//294
f 161//295 162//295 163//295
f 161//296 160//296 162//296
f 163//297 164//297 165//297
f 163//298 162//298 164//298
f 165//299 166//299 167//299
f 165//300 164//300 166//300
f 167//301 168//301 169//301
f 167//302 166//302 168//302
f 169//303 170//303 171//303
f 169//304 168//304 170//304
f 171//305 172//305 173//305
f 171//306 170//306 172//306
f 173//307 174//307 175//307
f 173//308 172//308 174//308
f 175//309 176//309 177//309
f 175//310 174//310 176//310
f 177//311 157//311 154//311
f 177//312 176//312 157//312
f 178//313 155//313 157//313
f 178//314 158//314 155//314
f 178//315 160//315 158//315
f 178//316 162//316 160//316
f 178//317 164//317 162//317
f 178//318 166//318 164//318
f 178//319 168//319 166//319
f 178//320 170//320 168//320
f 178//321 172//321 170//321
f 178//322 174//322 172//322
f 178//323 176//323 174//323
f 178//324 157//324 176//324
f 179//325 154//325 156//325
f 179//326 156//326 159//326
f 179//327 159//327 161//327
f 179//328 161//328 163//328
f 179//329 163//329 165//329
f 179//330 165//330 167//330
f 179//331 167//331 169//331
f 179//332 169//332 171//332
f 179//333 171//333 173//333
f 179//334 173//334 175//334
f 179//335 175//335 177//335
f 179//336 177//336 154//336
f 180//337 181//337 182//337
f 180//338 183//338 181//338
f 182//339 184//339 185//339
f 182//340 181//340 184//340
f 185//341 186//341 187//341
f 185//342 184//342 186//342
f 187//343 188//343 189//343
f 187//344 186//344 188//344
f 189//345 190//345 191//345
f 189//346 188//346 190//346
f 191//347 192//347 193//347
f 191//348 190//348 192//348
f 193//349 194//349 195//349
f 193//350 192//350 194//350
f 195//351 196//351 197//351
f 195//352 194//352 196//352
f 197//353 198//353 199//353
f 197//354 196//354 198//354
f 199//355 200//355 201//355
f 199//356 198//356 200//356
f 201//357 202//357 203//357
f 201//358 200//358 202//358
f 203//359 183//359 180//359
f 203//360 202//360 183//360
f 204//361 181//361 183//361
f 204//362 184//362 181//362
f 204//363 186//363 184//363
f 204//364 188//364 186//364
f 204//365 190//365 188//365
f 204//366 192//366 190//366
f 204//367 194//367 192//367
f 204//368 196//368 194//368
f 204//369 198//369 196//369
f 204//370 200//370 198//370
f 204//371 202//371 200//371
f 204//372 183//372 202//372
f 205//373 180//373 182//373
f 205//374 182//374 185//374
f 205//375 185//375 187//375
f 205//376 187//376 189//376
f 205//377 189//377 191//377
f 205//378 191//378 193//378
f 205//379 193//379 195//379
f 205//380 195//380 197//380
f 205//381 197//381 199//381
f 205//382 199//382 201//382
f 205//383 201//383 203//383
f 205//384 203//384 180//384
f 206//385 207//385 208//385
f 208//386 207//386 209//386
f 209//387 207//387 210//387
f 210//388 207//388 211//388
f 211//389 207//389 212//389
f 212//390 207//390 213//390
f 213//391 207//391 214//391
f 214//392 207//392 206//392
f 215//393 206//393 208//393
f 215//394 208//394 209//394
f 215//395 209//395 210//395
f 215//396 210//396 211//396
f 215//397 211//397 212//397
f 215//398 212//398 213//398
f 215//399 213//399 214//399
f 215//400 214//400 206//400
f 216//401 217//401 218//401
f 218//402 217//402 219//402
f 219//403 217//403 220//403
f 220//404 217//404 221//404
f 221//405 217//405 222//405
f 222//406 217//406 223//406
f 223//407 217//407 224//407
f 224//408 217//408 216//408
f 225//409 216//409 218//409
f 225//410 218//410 219//410
f 225//411 219//411 220//411
f 225//412 220//412 221//412
f 225//413 221//413 222//413
f 225//414 222//414 223//414
f 225//415 223//415 224//415
f 225//416 224//416 216//416
