# Placeholder human generated for Godot (Y-up)
mtllib placeholder_human.mtl
o human
v -0.045000 0.000000 0.000000
v -0.060407 0.720000 0.057500
v -0.060407 0.000000 0.057500
v -0.045000 0.720000 0.000000
v -0.102500 0.720000 0.099593
v -0.102500 0.000000 0.099593
v -0.160000 0.720000 0.115000
v -0.160000 0.000000 0.115000
v -0.217500 0.720000 0.099593
v -0.217500 0.000000 0.099593
v -0.259593 0.720000 0.057500
v -0.259593 0.000000 0.057500
v -0.275000 0.720000 0.000000
v -0.275000 0.000000 0.000000
v -0.259593 0.720000 -0.057500
v -0.259593 0.000000 -0.057500
v -0.217500 0.720000 -0.099593
v -0.217500 0.000000 -0.099593
v -0.160000 0.720000 -0.115000
v -0.160000 0.000000 -0.115000
v -0.102500 0.720000 -0.099593
v -0.102500 0.000000 -0.099593
v -0.060407 0.720000 -0.057500
v -0.060407 0.000000 -0.057500
v -0.160000 0.720000 0.000000
v -0.160000 0.000000 0.000000
v 0.275000 0.000000 0.000000
v 0.259593 0.720000 0.057500
v 0.259593 0.000000 0.057500
v 0.275000 0.720000 0.000000
v 0.217500 0.720000 0.099593
v 0.217500 0.000000 0.099593
v 0.160000 0.720000 0.115000
v 0.160000 0.000000 0.115000
v 0.102500 0.720000 0.099593
v 0.102500 0.000000 0.099593
v 0.060407 0.720000 0.057500
v 0.060407 0.000000 0.057500
v 0.045000 0.720000 0.000000
v 0.045000 0.000000 0.000000
v 0.060407 0.720000 -0.057500
v 0.060407 0.000000 -0.057500
v 0.102500 0.720000 -0.099593
v 0.102500 0.000000 -0.099593
v 0.160000 0.720000 -0.115000
v 0.160000 0.000000 -0.115000
v 0.217500 0.720000 -0.099593
v 0.217500 0.000000 -0.099593
v 0.259593 0.720000 -0.057500
v 0.259593 0.000000 -0.057500
v 0.160000 0.720000 0.000000
v 0.160000 0.000000 0.000000
v -0.280000 0.660000 -0.170000
v 0.280000 0.660000 0.170000
v -0.280000 0.660000 0.170000
v 0.280000 0.660000 -0.170000
v -0.280000 1.440000 -0.170000
v 0.280000 1.440000 0.170000
v 0.280000 1.440000 -0.170000
v -0.280000 1.440000 0.170000
v 0.070000 1.450000 0.000000
v 0.056631 1.590000 0.041145
v 0.056631 1.450000 0.041145
v 0.070000 1.590000 0.000000
v 0.021631 1.590000 0.066574
v 0.021631 1.450000 0.066574
v -0.021631 1.590000 0.066574
v -0.021631 1.450000 0.066574
v -0.056631 1.590000 0.041145
v -0.056631 1.450000 0.041145
v -0.070000 1.590000 0.000000
v -0.070000 1.450000 0.000000
v -0.056631 1.590000 -0.041145
v -0.056631 1.450000 -0.041145
v -0.021631 1.590000 -0.066574
v -0.021631 1.450000 -0.066574
v 0.021631 1.590000 -0.066574
v 0.021631 1.450000 -0.066574
v 0.056631 1.590000 -0.041145
v 0.056631 1.450000 -0.041145
v 0.000000 1.590000 0.000000
v 0.000000 1.450000 0.000000
v 0.000000 1.940000 0.000000
v 0.052632 1.927060 0.038239
v 0.065056 1.927060 0.000000
v 0.020103 1.927060 0.061872
v -0.020103 1.927060 0.061872
v -0.052632 1.927060 0.038239
v -0.065056 1.927060 0.000000
v -0.052632 1.927060 -0.038239
v -0.020103 1.927060 -0.061872
v 0.020103 1.927060 -0.061872
v 0.052632 1.927060 -0.038239
v 0.097250 1.890208 0.070657
v 0.120208 1.890208 0.000000
v 0.037146 1.890208 0.114325
v -0.037146 1.890208 0.114325
v -0.097250 1.890208 0.070657
v -0.120208 1.890208 0.000000
v -0.097250 1.890208 -0.070657
v -0.037146 1.890208 -0.114325
v 0.037146 1.890208 -0.114325
v 0.097250 1.890208 -0.070657
v 0.127064 1.835056 0.092317
v 0.157060 1.835056 0.000000
v 0.048534 1.835056 0.149372
v -0.048534 1.835056 0.149372
v -0.127064 1.835056 0.092317
v -0.157060 1.835056 0.000000
v -0.127064 1.835056 -0.092317
v -0.048534 1.835056 -0.149372
v 0.048534 1.835056 -0.149372
v 0.127064 1.835056 -0.092317
v 0.137533 1.770000 0.099923
v 0.170000 1.770000 0.000000
v 0.052533 1.770000 0.161680
v -0.052533 1.770000 0.161680
v -0.137533 1.770000 0.099923
v -0.170000 1.770000 0.000000
v -0.137533 1.770000 -0.099923
v -0.052533 1.770000 -0.161680
v 0.052533 1.770000 -0.161680
v 0.137533 1.770000 -0.099923
v 0.127064 1.704944 0.092317
v 0.157060 1.704944 0.000000
v 0.048534 1.704944 0.149372
v -0.048534 1.704944 0.149372
v -0.127064 1.704944 0.092317
v -0.157060 1.704944 0.000000
v -0.127064 1.704944 -0.092317
v -0.048534 1.704944 -0.149372
v 0.048534 1.704944 -0.149372
v 0.127064 1.704944 -0.092317
v 0.097250 1.649792 0.070657
v 0.120208 1.649792 0.000000
v 0.037146 1.649792 0.114325
v -0.037146 1.649792 0.114325
v -0.097250 1.649792 0.070657
v -0.120208 1.649792 0.000000
v -0.097250 1.649792 -0.070657
v -0.037146 1.649792 -0.114325
v 0.037146 1.649792 -0.114325
v 0.097250 1.649792 -0.070657
v 0.052632 1.612940 0.038239
v 0.065056 1.612940 0.000000
v 0.020103 1.612940 0.061872
v -0.020103 1.612940 0.061872
v -0.052632 1.612940 0.038239
v -0.065056 1.612940 0.000000
v -0.052632 1.612940 -0.038239
v -0.020103 1.612940 -0.061872
v 0.020103 1.612940 -0.061872
v 0.052632 1.612940 -0.038239
v 0.000000 1.600000 0.000000
v -0.350000 0.630000 0.000000
v -0.361388 1.410000 0.042500
v -0.361388 0.630000 0.042500
v -0.350000 1.410000 0.000000
v -0.392500 1.410000 0.073612
v -0.392500 0.630000 0.073612
v -0.435000 1.410000 0.085000
v -0.435000 0.630000 0.085000
v -0.477500 1.410000 0.073612
v -0.477500 0.630000 0.073612
v -0.508612 1.410000 0.042500
v -0.508612 0.630000 0.042500
v -0.520000 1.410000 0.000000
v -0.520000 0.630000 0.000000
v -0.508612 1.410000 -0.042500
v -0.508612 0.630000 -0.042500
v -0.477500 1.410000 -0.073612
v -0.477500 0.630000 -0.073612
v -0.435000 1.410000 -0.085000
v -0.435000 0.630000 -0.085000
v -0.392500 1.410000 -0.073612
v -0.392500 0.630000 -0.073612
v -0.361388 1.410000 -0.042500
v -0.361388 0.630000 -0.042500
v -0.435000 1.410000 0.000000
v -0.435000 0.630000 0.000000
v 0.520000 0.630000 0.000000
v 0.508612 1.410000 0.042500
v 0.508612 0.630000 0.042500
v 0.520000 1.410000 0.000000
v 0.477500 1.410000 0.073612
v 0.477500 0.630000 0.073612
v 0.435000 1.410000 0.085000
v 0.435000 0.630000 0.085000
v 0.392500 1.410000 0.073612
v 0.392500 0.630000 0.073612
v 0.361388 1.410000 0.042500
v 0.361388 0.630000 0.042500
v 0.350000 1.410000 0.000000
v 0.350000 0.630000 0.000000
v 0.361388 1.410000 -0.042500
v 0.361388 0.630000 -0.042500
v 0.392500 1.410000 -0.073612
v 0.392500 0.630000 -0.073612
v 0.435000 1.410000 -0.085000
v 0.435000 0.630000 -0.085000
v 0.477500 1.410000 -0.073612
v 0.477500 0.630000 -0.073612
v 0.508612 1.410000 -0.042500
v 0.508612 0.630000 -0.042500
v 0.435000 1.410000 0.000000
v 0.435000 0.630000 0.000000
vn 0.965926 0.000000 0.258819
vn 0.965926 -0.000000 0.258819
vn 0.707107 0.000000 0.707107
vn 0.707107 -0.000000 0.707107
vn 0.258819 0.000000 0.965926
vn 0.258819 -0.000000 0.965926
vn -0.258819 0.000000 0.965926
vn -0.258819 0.000000 0.965926
vn -0.707107 0.000000 0.707107
vn -0.707107 0.000000 0.707107
vn -0.965926 0.000000 0.258819
vn -0.965926 0.000000 0.258819
vn -0.965926 0.000000 -0.258819
vn -0.965926 0.000000 -0.258819
vn -0.707107 0.000000 -0.707107
vn -0.707107 0.000000 -0.707107
vn -0.258819 0.000000 -0.965926
vn -0.258819 0.000000 -0.965926
vn 0.258819 0.000000 -0.965926
vn 0.258819 0.000000 -0.965926
vn 0.707107 0.000000 -0.707107
vn 0.707107 0.000000 -0.707107
vn 0.965926 0.000000 -0.258819
vn 0.965926 0.000000 -0.258819
vn 0.000000 1.000000 0.000000
vn 0.000000 1.000000 0.000000
vn 0.000000 1.000000 0.000000
vn 0.000000 1.000000 -0.000000
vn 0.000000 1.000000 0.000000
vn 0.000000 1.000000 0.000000
vn 0.000000 1.000000 0.000000
vn 0.000000 1.000000 0.000000
vn 0.000000 1.000000 0.000000
vn 0.000000 1.000000 0.000000
vn 0.000000 1.000000 0.000000
vn -0.000000 1.000000 0.000000
vn 0.000000 -1.000000 0.000000
vn 0.000000 -1.000000 0.000000
vn 0.000000 -1.000000 0.000000
vn 0.000000 -1.000000 0.000000
vn 0.000000 -1.000000 0.000000
vn 0.000000 -1.000000 0.000000
vn -0.000000 -1.000000 0.000000
vn 0.000000 -1.000000 0.000000
vn 0.000000 -1.000000 0.000000
vn 0.000000 -1.000000 -0.000000
vn 0.000000 -1.000000 0.000000
vn 0.000000 -1.000000 0.000000
vn 0.965926 0.000000 0.258819
vn 0.965926 -0.000000 0.258819
vn 0.707107 0.000000 0.707107
vn 0.707107 -0.000000 0.707107
vn 0.258819 0.000000 0.965926
vn 0.258819 -0.000000 0.965926
vn -0.258819 0.000000 0.965926
vn -0.258819 0.000000 0.965926
vn -0.707107 0.000000 0.707107
vn -0.707107 0.000000 0.707107
vn -0.965926 0.000000 0.258819
vn -0.965926 0.000000 0.258819
vn -0.965926 0.000000 -0.258819
vn -0.965926 0.000000 -0.258819
vn -0.707107 0.000000 -0.707107
vn -0.707107 0.000000 -0.707107
vn -0.258819 0.000000 -0.965926
vn -0.258819 0.000000 -0.965926
vn 0.258819 0.000000 -0.965926
vn 0.258819 0.000000 -0.965926
vn 0.707107 0.000000 -0.707107
vn 0.707107 0.000000 -0.707107
vn 0.965926 0.000000 -0.258819
vn 0.965926 0.000000 -0.258819
vn 0.000000 1.000000 0.000000
vn 0.000000 1.000000 0.000000
vn 0.000000 1.000000 0.000000
vn 0.000000 1.000000 -0.000000
vn 0.000000 1.000000 0.000000
vn 0.000000 1.000000 0.000000
vn 0.000000 1.000000 0.000000
vn 0.000000 1.000000 0.000000
vn 0.000000 1.000000 0.000000
vn 0.000000 1.000000 0.000000
vn 0.000000 1.000000 0.000000
vn -0.000000 1.000000 0.000000
vn 0.000000 -1.000000 0.000000
vn 0.000000 -1.000000 0.000000
vn 0.000000 -1.000000 0.000000
vn 0.000000 -1.000000 0.000000
vn 0.000000 -1.000000 0.000000
vn 0.000000 -1.000000 0.000000
vn -0.000000 -1.000000 0.000000
vn 0.000000 -1.000000 0.000000
vn 0.000000 -1.000000 0.000000
vn 0.000000 -1.000000 -0.000000
vn 0.000000 -1.000000 0.000000
vn 0.000000 -1.000000 0.000000
vn 0.000000 -1.000000 0.000000
vn 0.000000 -1.000000 0.000000
vn 0.000000 1.000000 0.000000
vn 0.000000 1.000000 0.000000
vn 0.000000 0.000000 -1.000000
vn 0.000000 0.000000 -1.000000
vn 0.000000 0.000000 1.000000
vn 0.000000 0.000000 1.000000
vn -1.000000 0.000000 0.000000
vn -1.000000 0.000000 0.000000
vn 1.000000 0.000000 0.000000
vn 1.000000 0.000000 0.000000
vn 0.951057 0.000000 0.309017
vn 0.951057 -0.000000 0.309017
vn 0.587785 0.000000 0.809017
vn 0.587785 -0.000000 0.809017
vn 0.000000 0.000000 1.000000
vn 0.000000 -0.000000 1.000000
vn -0.587785 0.000000 0.809017
vn -0.587785 0.000000 0.809017
vn -0.951057 0.000000 0.309017
vn -0.951057 0.000000 0.309017
vn -0.951057 0.000000 -0.309017
vn -0.951057 0.000000 -0.309017
vn -0.587785 0.000000 -0.809017
vn -0.587785 0.000000 -0.809017
vn -0.000000 0.000000 -1.000000
vn -0.000000 0.000000 -1.000000
vn 0.587785 0.000000 -0.809017
vn 0.587785 0.000000 -0.809017
vn 0.951057 0.000000 -0.309017
vn 0.951057 0.000000 -0.309017
vn 0.000000 1.000000 0.000000
vn 0.000000 1.000000 0.000000
vn 0.000000 1.000000 -0.000000
vn 0.000000 1.000000 0.000000
vn 0.000000 1.000000 0.000000
vn 0.000000 1.000000 0.000000
vn 0.000000 1.000000 0.000000
vn 0.000000 1.000000 0.000000
vn 0.000000 1.000000 0.000000
vn -0.000000 1.000000 0.000000
vn 0.000000 -1.000000 0.000000
vn 0.000000 -1.000000 0.000000
vn 0.000000 -1.000000 0.000000
vn 0.000000 -1.000000 0.000000
vn 0.000000 -1.000000 0.000000
vn -0.000000 -1.000000 0.000000
vn 0.000000 -1.000000 0.000000
vn 0.000000 -1.000000 -0.000000
vn 0.000000 -1.000000 0.000000
vn 0.000000 -1.000000 0.000000
vn 0.194700 0.978821 0.063262
vn 0.120331 0.978821 0.165621
vn 0.000000 0.978821 0.204719
vn -0.120331 0.978821 0.165621
vn -0.194700 0.978821 0.063262
vn -0.194700 0.978821 -0.063262
vn -0.120331 0.978821 -0.165621
vn -0.000000 0.978821 -0.204719
vn 0.120331 0.978821 -0.165621
vn 0.194700 0.978821 -0.063262
vn 0.546734 0.818245 0.177645
vn 0.546734 0.818245 0.177645
vn 0.337900 0.818245 0.465079
vn 0.337900 0.818245 0.465079
vn 0.000000 0.818245 0.574870
vn 0.000000 0.818245 0.574870
vn -0.337900 0.818245 0.465079
vn -0.337900 0.818245 0.465079
vn -0.546734 0.818245 0.177645
vn -0.546734 0.818245 0.177645
vn -0.546734 0.818245 -0.177645
vn -0.546734 0.818245 -0.177645
vn -0.337900 0.818245 -0.465079
vn -0.337900 0.818245 -0.465079
vn -0.000000 0.818245 -0.574870
vn -0.000000 0.818245 -0.574870
vn 0.337900 0.818245 -0.465079
vn 0.337900 0.818245 -0.465079
vn 0.546734 0.818245 -0.177645
vn 0.546734 0.818245 -0.177645
vn 0.802692 0.536342 0.260811
vn 0.802692 0.536342 0.260811
vn 0.496091 0.536342 0.682811
vn 0.496091 0.536342 0.682811
vn 0.000000 0.536342 0.844001
vn 0.000000 0.536342 0.844001
vn -0.496091 0.536342 0.682811
vn -0.496091 0.536342 0.682811
vn -0.802692 0.536342 0.260811
vn -0.802692 0.536342 0.260811
vn -0.802692 0.536342 -0.260811
vn -0.802692 0.536342 -0.260811
vn -0.496091 0.536342 -0.682811
vn -0.496091 0.536342 -0.682811
vn 0.000000 0.536342 -0.844001
vn -0.000000 0.536342 -0.844001
vn 0.496091 0.536342 -0.682811
vn 0.496091 0.536342 -0.682811
vn 0.802692 0.536342 -0.260811
vn 0.802692 0.536342 -0.260811
vn 0.934482 0.185880 0.303632
vn 0.934482 0.185880 0.303632
vn 0.577542 0.185880 0.794918
vn 0.577542 0.185880 0.794918
vn 0.000000 0.185880 0.982572
vn 0.000000 0.185880 0.982572
vn -0.577542 0.185880 0.794918
vn -0.577542 0.185880 0.794918
vn -0.934482 0.185880 0.303632
vn -0.934482 0.185880 0.303632
vn -0.934482 0.185880 -0.303632
vn -0.934482 0.185880 -0.303632
vn -0.577542 0.185880 -0.794918
vn -0.577542 0.185880 -0.794918
vn 0.000000 0.185880 -0.982572
vn 0.000000 0.185880 -0.982572
vn 0.577542 0.185880 -0.794918
vn 0.577542 0.185880 -0.794918
vn 0.934482 0.185880 -0.303632
vn 0.934482 0.185880 -0.303632
vn 0.934482 -0.185880 0.303632
vn 0.934482 -0.185880 0.303632
vn 0.577542 -0.185880 0.794918
vn 0.577542 -0.185880 0.794918
vn 0.000000 -0.185880 0.982572
vn 0.000000 -0.185880 0.982572
vn -0.577542 -0.185880 0.794918
vn -0.577542 -0.185880 0.794918
vn -0.934482 -0.185880 0.303632
vn -0.934482 -0.185880 0.303632
vn -0.934482 -0.185880 -0.303632
vn -0.934482 -0.185880 -0.303632
vn -0.577542 -0.185880 -0.794918
vn -0.577542 -0.185880 -0.794918
vn 0.000000 -0.185880 -0.982572
vn 0.000000 -0.185880 -0.982572
vn 0.577542 -0.185880 -0.794918
vn 0.577542 -0.185880 -0.794918
vn 0.934482 -0.185880 -0.303632
vn 0.934482 -0.185880 -0.303632
vn 0.802692 -0.536342 0.260811
vn 0.802692 -0.536342 0.260811
vn 0.496091 -0.536342 0.682811
vn 0.496091 -0.536342 0.682811
vn 0.000000 -0.536342 0.844001
vn 0.000000 -0.536342 0.844001
vn -0.496091 -0.536342 0.682811
vn -0.496091 -0.536342 0.682811
vn -0.802692 -0.536342 0.260811
vn -0.802692 -0.536342 0.260811
vn -0.802692 -0.536342 -0.260811
vn -0.802692 -0.536342 -0.260811
vn -0.496091 -0.536342 -0.682811
vn -0.496091 -0.536342 -0.682811
vn -0.000000 -0.536342 -0.844001
vn 0.000000 -0.536342 -0.844001
vn 0.496091 -0.536342 -0.682811
vn 0.496091 -0.536342 -0.682811
vn 0.802692 -0.536342 -0.260811
vn 0.802692 -0.536342 -0.260811
vn 0.546734 -0.818245 0.177645
vn 0.546734 -0.818245 0.177645
vn 0.337900 -0.818245 0.465079
vn 0.337900 -0.818245 0.465079
vn 0.000000 -0.818245 0.574870
vn 0.000000 -0.818245 0.574870
vn -0.337900 -0.818245 0.465079
vn -0.337900 -0.818245 0.465079
vn -0.546734 -0.818245 0.177645
vn -0.546734 -0.818245 0.177645
vn -0.546734 -0.818245 -0.177645
vn -0.546734 -0.818245 -0.177645
vn -0.337900 -0.818245 -0.465079
vn -0.337900 -0.818245 -0.465079
vn -0.000000 -0.818245 -0.574870
vn -0.000000 -0.818245 -0.574870
vn 0.337900 -0.818245 -0.465079
vn 0.337900 -0.818245 -0.465079
vn 0.546734 -0.818245 -0.177645
vn 0.546734 -0.818245 -0.177645
vn 0.194700 -0.978821 0.063262
vn 0.120331 -0.978821 0.165621
vn 0.000000 -0.978821 0.204719
vn -0.120331 -0.978821 0.165621
vn -0.194700 -0.978821 0.063262
vn -0.194700 -0.978821 -0.063262
vn -0.120331 -0.978821 -0.165621
vn -0.000000 -0.978821 -0.204719
vn 0.120331 -0.978821 -0.165621
vn 0.194700 -0.978821 -0.063262
vn 0.965926 0.000000 0.258819
vn 0.965926 -0.000000 0.258819
vn 0.707107 0.000000 0.707107
vn 0.707107 -0.000000 0.707107
vn 0.258819 0.000000 0.965926
vn 0.258819 -0.000000 0.965926
vn -0.258819 0.000000 0.965926
vn -0.258819 0.000000 0.965926
vn -0.707107 0.000000 0.707107
vn -0.707107 0.000000 0.707107
vn -0.965926 0.000000 0.258819
vn -0.965926 0.000000 0.258819
vn -0.965926 0.000000 -0.258819
vn -0.965926 0.000000 -0.258819
vn -0.707107 0.000000 -0.707107
vn -0.707107 0.000000 -0.707107
vn -0.258819 0.000000 -0.965926
vn -0.258819 0.000000 -0.965926
vn 0.258819 0.000000 -0.965926
vn 0.258819 0.000000 -0.965926
vn 0.707107 0.000000 -0.707107
vn 0.707107 0.000000 -0.707107
vn 0.965926 0.000000 -0.258819
vn 0.965926 0.000000 -0.258819
vn 0.000000 1.000000 0.000000
vn 0.000000 1.000000 0.000000
vn 0.000000 1.000000 0.000000
vn 0.000000 1.000000 -0.000000
vn 0.000000 1.000000 0.000000
vn 0.000000 1.000000 0.000000
vn 0.000000 1.000000 0.000000
vn 0.000000 1.000000 0.000000
vn 0.000000 1.000000 0.000000
vn 0.000000 1.000000 0.000000
vn 0.000000 1.000000 0.000000
vn -0.000000 1.000000 0.000000
vn 0.000000 -1.000000 0.000000
vn 0.000000 -1.000000 0.000000
vn 0.000000 -1.000000 0.000000
vn 0.000000 -1.000000 0.000000
vn 0.000000 -1.000000 0.000000
vn 0.000000 -1.000000 0.000000
vn -0.000000 -1.000000 0.000000
vn 0.000000 -1.000000 0.000000
vn 0.000000 -1.000000 -0.000000
vn 0.000000 -1.000000 0.000000
vn 0.000000 -1.000000 0.000000
vn 0.000000 -1.000000 0.000000
vn 0.965926 0.000000 0.258819
vn 0.965926 -0.000000 0.258819
vn 0.707107 0.000000 0.707107
vn 0.707107 -0.000000 0.707107
vn 0.258819 0.000000 0.965926
vn 0.258819 -0.000000 0.965926
vn -0.258819 0.000000 0.965926
vn -0.258819 0.000000 0.965926
vn -0.707107 0.000000 0.707107
vn -0.707107 0.000000 0.707107
vn -0.965926 0.000000 0.258819
vn -0.965926 0.000000 0.258819
vn -0.965926 0.000000 -0.258819
vn -0.965926 0.000000 -0.258819
vn -0.707107 0.000000 -0.707107
vn -0.707107 0.000000 -0.707107
vn -0.258819 0.000000 -0.965926
vn -0.258819 0.000000 -0.965926
vn 0.258819 0.000000 -0.965926
vn 0.258819 0.000000 -0.965926
vn 0.707107 0.000000 -0.707107
vn 0.707107 0.000000 -0.707107
vn 0.965926 0.000000 -0.258819
vn 0.965926 0.000000 -0.258819
vn 0.000000 1.000000 0.000000
vn 0.000000 1.000000 0.000000
vn 0.000000 1.000000 0.000000
vn 0.000000 1.000000 -0.000000
vn 0.000000 1.000000 0.000000
vn 0.000000 1.000000 0.000000
vn 0.000000 1.000000 0.000000
vn 0.000000 1.000000 0.000000
vn 0.000000 1.000000 0.000000
vn 0.000000 1.000000 0.000000
vn 0.000000 1.000000 0.000000
vn -0.000000 1.000000 0.000000
vn 0.000000 -1.000000 0.000000
vn 0.000000 -1.000000 0.000000
vn 0.000000 -1.000000 0.000000
vn 0.000000 -1.000000 0.000000
vn 0.000000 -1.000000 0.000000
vn 0.000000 -1.000000 0.000000
vn -0.000000 -1.000000 0.000000
vn 0.000000 -1.000000 0.000000
vn 0.000000 -1.000000 -0.000000
vn 0.000000 -1.000000 0.000000
vn 0.000000 -1.000000 0.000000
vn 0.000000 -1.000000 0.000000
usemtl placeholder
f 1//1 2//1 3//1
f 1//2 4//2 2//2
f 3//3 5//3 6//3
f 3//4 2//4 5//4
f 6//5 7//5 8//5
f 6//6 5//6 7//6
f 8//7 9//7 10//7
f 8//8 7//8 9//8
f 10//9 11//9 12//9
f 10//10 9//10 11//10
f 12//11 13//11 14//11
f 12//12 11//12 13//12
f 14//13 15//13 16//13
f 14//14 13//14 15//14
f 16//15 17//15 18//15
f 16//16 15//16 17//16
f 18//17 19//17 20//17
f 18//18 17//18 19//18
f 20//19 21//19 22//19
f 20//20 19//20 21//20
f 22//21 23//21 24//21
f 22//22 21//22 23//22
f 24//23 4//23 1//23
f 24//24 23//24 4//24
f 25//25 2//25 4//25
f 25//26 5//26 2//26
f 25//27 7//27 5//27
f 25//28 9//28 7//28
f 25//29 11//29 9//29
f 25//30 13//30 11//30
f 25//31 15//31 13//31
f 25//32 17//32 15//32
f 25//33 19//33 17//33
f 25//34 21//34 19//34
f 25//35 23//35 21//35
f 25//36 4//36 23//36
f 26//37 1//37 3//37
f 26//38 3//38 6//38
f 26//39 6//39 8//39
f 26//40 8//40 10//40
f 26//41 10//41 12//41
f 26//42 12//42 14//42
f 26//43 14//43 16//43
f 26//44 16//44 18//44
f 26//45 18//45 20//45
f 26//46 20//46 22//46
f 26//47 22//47 24//47
f 26//48 24//48 1//48
f 27//49 28//49 29//49
f 27//50 30//50 28//50
f 29//51 31//51 32//51
f 29//52 28//52 31//52
f 32//53 33//53 34//53
f 32//54 31//54 33//54
f 34//55 35//55 36//55
f 34//56 33//56 35//56
f 36//57 37//57 38//57
f 36//58 35//58 37//58
f 38//59 39//59 40//59
f 38//60 37//60 39//60
f 40//61 41//61 42//61
f 40//62 39//62 41//62
f 42//63 43//63 44//63
f 42//64 41//64 43//64
f 44//65 45//65 46//65
f 44//66 43//66 45//66
f 46//67 47//67 48//67
f 46//68 45//68 47//68
f 48//69 49//69 50//69
f 48//70 47//70 49//70
f 50//71 30//71 27//71
f 50//72 49//72 30//72
f 51//73 28//73 30//73
f 51//74 31//74 28//74
f 51//75 33//75 31//75
f 51//76 35//76 33//76
f 51//77 37//77 35//77
f 51//78 39//78 37//78
f 51//79 41//79 39//79
f 51//80 43//80 41//80
f 51//81 45//81 43//81
f 51//82 47//82 45//82
f 51//83 49//83 47//83
f 51//84 30//84 49//84
f 52//85 27//85 29//85
f 52//86 29//86 32//86
f 52//87 32//87 34//87
f 52//88 34//88 36//88
f 52//89 36//89 38//89
f 52//90 38//90 40//90
f 52//91 40//91 42//91
f 52//92 42//92 44//92
f 52//93 44//93 46//93
f 52//94 46//94 48//94
f 52//95 48//95 50//95
f 52//96 50//96 27//96
f 53//97 54//97 55//97
f 53//98 56//98 54//98
f 57//99 58//99 59//99
f 57//100 60//100 58//100
f 53//101 59//101 56//101
f 53//102 57//102 59//102
f 55//103 58//103 60//103
f 55//104 54//104 58//104
f 53//105 60//105 57//105
f 53//106 55//106 60//106
f 56//107 58//107 54//107
f 56//108 59//108 58//108
f 61//109 62//109 63//109
f 61//110 64//110 62//110
f 63//111 65//111 66//111
f 63//112 62//112 65//112
f 66//113 67//113 68//113
f 66//114 65//114 67//114
f 68//115 69//115 70//115
f 68//116 67//116 69//116
f 70//117 71//117 72//117
f 70//118 69//118 71//118
f 72//119 73//119 74//119
f 72//120 71//120 73//120
f 74//121 75//121 76//121
f 74//122 73//122 75//122
f 76//123 77//123 78//123
f 76//124 75//124 77//124
f 78//125 79//125 80//125
f 78//126 77//126 79//126
f 80//127 64//127 61//127
f 80//128 79//128 64//128
f 81//129 62//129 64//129
f 81//130 65//130 62//130
f 81//131 67//131 65//131
f 81//132 69//132 67//132
f 81//133 71//133 69//133
f 81//134 73//134 71//134
f 81//135 75//135 73//135
f 81//136 77//136 75//136
f 81//137 79//137 77//137
f 81//138 64//138 79//138
f 82//139 61//139 63//139
f 82//140 63//140 66//140
f 82//141 66//141 68//141
f 82//142 68//142 70//142
f 82//143 70//143 72//143
f 82//144 72//144 74//144
f 82//145 74//145 76//145
f 82//146 76//146 78//146
f 82//147 78//147 80//147
f 82//148 80//148 61//148
f 83//149 84//149 85//149
f 83//150 86//150 84//150
f 83//151 87//151 86//151
f 83//152 88//152 87//152
f 83//153 89//153 88//153
f 83//154 90//154 89//154
f 83//155 91//155 90//155
f 83//156 92//156 91//156
f 83//157 93//157 92//157
f 83//158 85//158 93//158
f 85//159 94//159 95//159
f 85//160 84//160 94//160
f 84//161 96//161 94//161
f 84//162 86//162 96//162
f 86//163 97//163 96//163
f 86//164 87//164 97//164
f 87//165 98//165 97//165
f 87//166 88//166 98//166
f 88//167 99//167 98//167
f 88//168 89//168 99//168
f 89//169 100//169 99//169
f 89//170 90//170 100//170
f 90//171 101//171 100//171
f 90//172 91//172 101//172
f 91//173 102//173 101//173
f 91//174 92//174 102//174
f 92//175 103//175 102//175
f 92//176 93//176 103//176
f 93//177 95//177 103//177
f 93//178 85//178 95//178
f 95//179 104//179 105//179
f 95//180 94//180 104//180
f 94//181 106//181 104//181
f 94//182 96//182 106//182
f 96//183 107//183 106//183
f 96//184 97//184 107//184
f 97//185 108//185 107//185
f 97//186 98//186 108//186
f 98//187 109//187 108//187
f 98//188 99//188 109//188
f 99//189 110//189 109//189
f 99//190 100//190 110//190
f 100//191 111//191 110//191
f 100//192 101//192 111//192
f 101//193 112//193 111//193
f 101//194 102//194 112//194
f 102//195 113//195 112//195
f 102//196 103//196 113//196
f 103//197 105//197 113//197
f 103//198 95//198 105//198
f 105//199 114//199 115//199
f 105//200 104//200 114//200
f 104//201 116//201 114//201
f 104//202 106//202 116//202
f 106//203 117//203 116//203
f 106//204 107//204 117//204
f 107//205 118//205 117//205
f 107//206 108//206 118//206
f 108//207 119//207 118//207
f 108//208 109//208 119//208
f 109//209 120//209 119//209
f 109//210 110//210 120//210
f 110//211 121//211 120//211
f 110//212 111//212 121//212
f 111//213 122//213 121//213
f 111//214 112//214 122//214
f 112//215 123//215 122//215
f 112//216 113//216 123//216
f 113//217 115//217 123//217
f 113//218 105//218 115//218
f 115//219 124//219 125//219
f 115//220 114//220 124//220
f 114//221 126//221 124//221
f 114//222 116//222 126//222
f 116//223 127//223 126//223
f 116//224 117//224 127//224
f 117//225 128//225 127//225
f 117//226 118//226 128//226
f 118//227 129//227 128//227
f 118//228 119//228 129//228
f 119//229 130//229 129//229
f 119//230 120//230 130//230
f 120//231 131//231 130//231
f 120//232 121//232 131//232
f 121//233 132//233 131//233
f 121//234 122//234 132//234
f 122//235 133//235 132//235
f 122//236 123//236 133//236
f 123//237 125//237 133//237
f 123//238 115//238 125//238
f 125//239 134//239 135//239
f 125//240 124//240 134//240
f 124//241 136//241 134//241
f 124//242 126//242 136//242
f 126//243 137//243 136//243
f 126//244 127//244 137//244
f 127//245 138//245 137//245
f 127//246 128//246 138//246
f 128//247 139//247 138//247
f 128//248 129//248 139//248
f 129//249 140//249 139//249
f 129//250 130//250 140//250
f 130//251 141//251 140//251
f 130//252 131//252 141//252
f 131//253 142//253 141//253
f 131//254 132//254 142//254
f 132//255 143//255 142//255
f 132//256 133//256 143//256
f 133//257 135//257 143//257
f 133//258 125//258 135//258
f 135//259 144//259 145//259
f 135//260 134//260 144//260
f 134//261 146//261 144//261
f 134//262 136//262 146//262
f 136//263 147//263 146//263
f 136//264 137//264 147//264
f 137//265 148//265 147//265
f 137//266 138//266 148//266
f 138//267 149//267 148//267
f 138//268 139//268 149//268
f 139//269 150//269 149//269
f 139//270 140//270 150//270
f 140//271 151//271 150//271
f 140//272 141//272 151//272
f 141//273 152//273 151//273
f 141//274 142//274 152//274
f 142//275 153//275 152//275
f 142//276 143//276 153//276
f 143//277 145//277 153//277
f 143//278 135//278 145//278
f 145//279 144//279 154//279
f 144//280 146//280 154//280
f 146//281 147//281 154//281
f 147//282 148//282 154//282
f 148//283 149//283 154//283
f 149//284 150//284 154//284
f 150//285 151//285 154//285
f 151//286 152//286 154//286
f 152//287 153//287 154//287
f 153//288 145//288 154//288
f 155//289 156//289 157//289
f 155//290 158//290 156//290
f 157//291 159//291 160//291
f 157//292 156//292 159//292
f 160//293 161//293 162//293
f 160//294 159//294 161//294
f 162//295 163//295 164//295
f 162//296 161//296 163//296
f 164//297 165//297 166//297
f 164//298 163//298 165//298
f 166//299 167//299 168//299
f 166//300 165//300 167//300
f 168//301 169//301 170//301
f 168//302 167//302 169//302
f 170//303 171//303 172//303
f 170//304 169//304 171//304
f 172//305 173//305 174//305
f 172//306 171//306 173//306
f 174//307 175//307 176//307
f 174//308 173//308 175//308
f 176//309 177//309 178//309
f 176//310 175//310 177//310
f 178//311 158//311 155//311
f 178//312 177//312 158//312
f 179//313 156//313 158//313
f 179//314 159//314 156//314
f 179//315 161//315 159//315
f 179//316 163//316 161//316
f 179//317 165//317 163//317
f 179//318 167//318 165//318
f 179//319 169//319 167//319
f 179//320 171//320 169//320
f 179//321 173//321 171//321
f 179//322 175//322 173//322
f 179//323 177//323 175//323
f 179//324 158//324 177//324
f 180//325 155//325 157//325
f 180//326 157//326 160//326
f 180//327 160//327 162//327
f 180//328 162//328 164//328
f 180//329 164//329 166//329
f 180//330 166//330 168//330
f 180//331 168//331 170//331
f 180//332 170//332 172//332
f 180//333 172//333 174//333
f 180//334 174//334 176//334
f 180//335 176//335 178//335
f 180//336 178//336 155//336
f 181//337 182//337 183//337
f 181//338 184//338 182//338
f 183//339 185//339 186//339
f 183//340 182//340 185//340
f 186//341 187//341 188//341
f 186//342 185//342 187//342
f 188//343 189//343 190//343
f 188//344 187//344 189//344
f 190//345 191//345 192//345
f 190//346 189//346 191//346
f 192//347 193//347 194//347
f 192//348 191//348 193//348
f 194//349 195//349 196//349
f 194//350 193//350 195//350
f 196//351 197//351 198//351
f 196//352 195//352 197//352
f 198//353 199//353 200//353
f 198//354 197//354 199//354
f 200//355 201//355 202//355
f 200//356 199//356 201//356
f 202//357 203//357 204//357
f 202//358 201//358 203//358
f 204//359 184//359 181//359
f 204//360 203//360 184//360
f 205//361 182//361 184//361
f 205//362 185//362 182//362
f 205//363 187//363 185//363
f 205//364 189//364 187//364
f 205//365 191//365 189//365
f 205//366 193//366 191//366
f 205//367 195//367 193//367
f 205//368 197//368 195//368
f 205//369 199//369 197//369
f 205//370 201//370 199//370
f 205//371 203//371 201//371
f 205//372 184//372 203//372
f 206//373 181//373 183//373
f 206//374 183//374 186//374
f 206//375 186//375 188//375
f 206//376 188//376 190//376
f 206//377 190//377 192//377
f 206//378 192//378 194//378
f 206//379 194//379 196//379
f 206//380 196//380 198//380
f 206//381 198//381 200//381
f 206//382 200//382 202//382
f 206//383 202//383 204//383
f 206//384 204//384 181//384
